<svg xmlns="http://www.w3.org/2000/svg" width="221" height="300" style="shape-rendering:geometricPrecision;text-rendering:geometricPrecision;image-rendering:optimizeQuality;fill-rule:evenodd;clip-rule:evenodd" version="1.1"><path fill="#0b1010" d="M94.5-.5h37c15.633 1.826 29.8 7.493 42.5 17 15.848-8.588 27.515-4.588 35 12 2.206 12.09-2.294 20.59-13.5 25.5a174.541 174.541 0 0 1 5.5 38.5c.5 17.664.667 35.33.5 53 7.832.085 14.165 3.085 19 9v6a37.736 37.736 0 0 1-5 6.5c-4.843 1.214-9.01.047-12.5-3.5 2.313 20.97 1.98 41.97-1 63-2.307 16.443-8.807 30.943-19.5 43.5 4.252 3.581 7.752 7.748 10.5 12.5 1.931 8.416-1.402 13.416-10 15a9.62 9.62 0 0 1-4.5-1.5L165 282.5c-12.392 6.391-25.558 10.224-39.5 11.5-22.943 2.543-45.277.043-67-7.5a15.505 15.505 0 0 0-7 2.5c-4.285 4.133-8.952 7.633-14 10.5h-6c-4.188-2.527-6.854-6.193-8-11 2.978-6.821 7.645-12.321 14-16.5-9.937-9.367-16.103-20.867-18.5-34.5a210.789 210.789 0 0 1-2.5-27.5 1684.26 1684.26 0 0 0 2.5-46.5c-4.095 3.969-8.929 5.469-14.5 4.5-1.937-2.071-3.604-4.238-5-6.5v-6c5.099-6.212 11.765-9.212 20-9a9000.963 9000.963 0 0 1-3-57c-.413-10.65.587-21.15 3-31.5C13.689 54.856 9.189 50.356 6 44.5 5.116 23.05 15.283 13.883 36.5 17c1.58.706 3.08 1.54 4.5 2.5C57.114 8.185 74.947 1.518 94.5-.5Z" style="opacity:.664"/><path fill="#68d6e1" d="M96.5 1.5c21.648-1.503 42.648 1.33 63 8.5 22.309 12.083 34.476 30.916 36.5 56.5a371.395 371.395 0 0 1 3 27 18901.43 18901.43 0 0 0 2 118c-2.79 50.79-29.623 77.623-80.5 80.5C44.27 297.439 10.77 262.272 20 186.5a874.46 874.46 0 0 0 2.5-39 24799.744 24799.744 0 0 1-4-61.5c-.63-20.225 4.538-38.725 15.5-55.5C44.288 17.927 57.455 9.76 73.5 6a713.111 713.111 0 0 1 23-4.5Z" style="opacity:1"/><path fill="#66d2dd" d="M182.5 14.5c14.269-.729 22.603 5.938 25 20-.857 8.033-5.024 13.7-12.5 17a99.748 99.748 0 0 1-4.5-13c3.78-8.75.78-13.25-9-13.5a76.251 76.251 0 0 0-6-6.5c2.265-1.627 4.599-2.96 7-4Z" style="opacity:1"/><path fill="#67d3de" d="M22.5 18.5c6.111-.662 11.778.505 17 3.5a51.045 51.045 0 0 0-8 9c-2.134.127-4.3-.04-6.5-.5-5.518 1.016-7.518 4.35-6 10a31.325 31.325 0 0 1 4.5 5 18.347 18.347 0 0 0-2 9C7.716 49.662 4.216 40.662 11 27.5c3.16-4.01 6.994-7.01 11.5-9Z" style="opacity:1"/><path fill="#1a2021" d="M65.5 18.5c13.556-1.968 24.056 2.699 31.5 14 6.522 23.927-2.644 37.26-27.5 40-19.58-2.408-28.747-13.408-27.5-33 3.97-11.477 11.803-18.477 23.5-21Z" style="opacity:1"/><path fill="#fafafa" d="M65.5 20.5c23.201-1.633 33.701 9.033 31.5 32C90.282 66.432 79.115 72.265 63.5 70 48.511 65.331 42.011 55.165 44 39.5c3.96-10.136 11.127-16.47 21.5-19Z" style="opacity:1"/><path fill="#1a2021" d="M135.5 15.5c23.821-1.013 34.988 10.32 33.5 34-5.458 13.5-15.625 20.166-30.5 20-12.129-.972-20.629-6.972-25.5-18-3.497-13.51.669-24.01 12.5-31.5 3.315-1.83 6.649-3.33 10-4.5Z" style="opacity:1"/><path fill="#fafafa" d="M134.5 17.5c23.675-2.158 34.508 8.509 32.5 32-3.488 9.673-10.322 15.506-20.5 17.5-22.529 2.135-33.362-8.032-32.5-30.5 3.841-9.678 10.674-16.012 20.5-19Z" style="opacity:1"/><path fill="#0d0d0d" d="M123.5 35.5c9.205-.294 12.705 4.04 10.5 13-5.421 6.933-10.421 6.6-15-1-1.522-5.259-.022-9.259 4.5-12ZM53.5 37.5c8.486-.349 12.32 3.651 11.5 12-2.11 5.445-5.944 7.278-11.5 5.5-6.637-5.737-6.637-11.57 0-17.5Z" style="opacity:1"/><path fill="#e2e2e2" d="M128.5 44.5h4v4h-4v-4Z" style="opacity:1"/><path fill="#ddd" d="M59.5 46.5h3c.384 2.165-.283 3.831-2 5-2.204-1.282-2.538-2.949-1-5Z" style="opacity:1"/><path fill="#050807" d="M121.5 70.5v1c-6.82 3.757-14.154 4.924-22 3.5a10.521 10.521 0 0 0-3-2.5l-1-2c1.737-6.401 6.071-9.734 13-10 7.352-.197 11.685 3.137 13 10Z" style="opacity:1"/><path fill="#f0cd9e" d="M121.5 71.5a94.29 94.29 0 0 1 8.5 8c1.105 5.456-1.062 8.79-6.5 10a78.024 78.024 0 0 1-11-4 40.939 40.939 0 0 0-9 .5c-4.145 2.426-8.478 2.926-13 1.5-2.848-4.72-2.515-9.22 1-13.5 1.525-1.009 3.192-1.509 5-1.5a10.521 10.521 0 0 1 3 2.5c7.846 1.424 15.18.257 22-3.5Z" style="opacity:1"/><path fill="#333030" d="M121.5 70.5c5.561 2.06 9.228 5.894 11 11.5-.752 4.242-3.085 7.076-7 8.5-1.915-.284-3.581.049-5 1l-2 11a43.116 43.116 0 0 0-1-13 18.07 18.07 0 0 0-8-2l3-2a78.024 78.024 0 0 0 11 4c5.438-1.21 7.605-4.544 6.5-10a94.29 94.29 0 0 0-8.5-8v-1Z" style="opacity:1"/><path fill="#f3f3f3" d="M109.5 87.5a18.07 18.07 0 0 1 8 2 43.116 43.116 0 0 1 1 13c-2.429 3.415-5.262 3.749-8.5 1-1.748-5.4-1.914-10.734-.5-16Z" style="opacity:1"/><path fill="#1d1e1e" d="m95.5 70.5 1 2c-1.808-.009-3.475.491-5 1.5-3.515 4.28-3.848 8.78-1 13.5 4.522 1.426 8.855.926 13-1.5a40.939 40.939 0 0 1 9-.5l-3 2c-1.414 5.266-1.248 10.6.5 16 3.238 2.749 6.071 2.415 8.5-1l2-11v12c-4.251 5.291-8.585 5.291-13 0-6.355 4.896-10.855 3.563-13.5-4a40.936 40.936 0 0 1-.5-9c-4.88-.892-7.213-3.892-7-9 .432-5.766 3.432-9.432 9-11Z" style="opacity:1"/><path fill="#f6f6f6" d="M102.5 87.5h4a98.433 98.433 0 0 1-.5 14c-2.128 2.958-4.794 3.624-8 2-2.22-4.095-2.887-8.428-2-13 2.415-.632 4.582-1.632 6.5-3Z" style="opacity:1"/><path fill="#4b99a1" d="M125.5 90.5c-1.068.934-2.401 1.268-4 1 .317 4.202-.017 8.202-1 12v-12c1.419-.951 3.085-1.284 5-1Z" style="opacity:1"/><path fill="#edcb9d" d="M201.5 148.5c6.061-.258 11.228 1.742 15.5 6 1.009 1.525 1.509 3.192 1.5 5-1.831-.552-3.497-.552-5 0 3.259 4.92 1.926 6.753-4 5.5-7.597-2.797-10.264-8.297-8-16.5Z" style="opacity:1"/><path fill="#edcb9c" d="M13.5 148.5h7c.297 4.267-.036 8.434-1 12.5A36.618 36.618 0 0 1 8 166.5c-5.06-1.086-5.56-3.086-1.5-6l-1-1a6.845 6.845 0 0 1-4 1c.122-3.647 1.788-6.481 5-8.5l7-3.5Z" style="opacity:1"/><path fill="#efcd9e" d="M178.5 271.5c5.315 3.15 9.481 7.483 12.5 13-.035 8.704-1.701 9.037-5 1-.893-1.211-1.726-1.211-2.5 0 6.408 8.023 4.741 10.523-5 7.5a93.285 93.285 0 0 0-11-12c4.184-2.73 7.85-5.896 11-9.5Z" style="opacity:1"/><path fill="#f1ce9f" d="M38.5 274.5a4.934 4.934 0 0 1 3 .5 76.728 76.728 0 0 0 14 9 60.738 60.738 0 0 0-15 11c-10.454 3.695-12.454.862-6-8.5-.774-1.211-1.607-1.211-2.5 0-3.828 9.498-5.494 9.164-5-1 3.07-4.573 6.904-8.239 11.5-11Z" style="opacity:1"/></svg>